<svg width="664" height="367" viewBox="0 0 664 367" fill="none" xmlns="http://www.w3.org/2000/svg">
<path d="M239.127 227.749C241.1 233.859 244.675 244.796 246.923 245.161M246.923 245.161C249.733 245.618 283.833 234.887 312.193 253.324C334.881 268.074 347.367 294.17 350.774 305.374C352.678 315.393 355.194 339.071 350.031 353.628C349.761 358.789 350.35 370.823 354.87 377.667C354.749 378.004 354.504 378.384 354.114 378.688M246.923 245.161L250.423 251.062L354.114 378.688M242.461 246.446C238.891 247.473 233.534 260.079 231.302 266.254C222.966 286.667 230.687 309.812 235.59 318.833C249.154 347.931 284.231 359.587 291.987 364.319C298.192 368.104 332.124 374.92 348.314 377.854C351.327 379.734 353.157 379.436 354.114 378.688M242.461 246.446L235.925 227.749M242.461 246.446L243.832 247.945M245.204 249.444L243.832 247.945M254.255 260.44C249.355 274.14 241.131 305.105 247.428 319.361M254.255 260.44L243.832 247.945M254.255 260.44L275.605 286.544M275.605 286.544C268.753 299.23 258.242 329.479 271.012 348.989M275.605 286.544L307.831 325.758L311.888 331.071L326.64 350.389M265.828 270.317C281.326 268.627 316.387 268.426 332.643 281.135M283.974 293.391C295.246 290.541 322.74 289.636 342.539 308.81M308.803 324.445C320.426 321.877 344.407 320.1 347.352 333.539M326.64 350.389C324.835 353.371 321.447 360.377 322.329 364.548M326.64 350.389L354.114 378.688M293.181 310.225C289.46 319.173 283.19 340.589 287.878 354.663" stroke="#BF9B30"/>
<path d="M268.05 225.213C268.419 217.691 269.679 202.364 271.765 201.223M271.765 201.223C274.372 199.797 310.112 200.813 332.932 170.844C351.187 146.87 356.698 113.43 357.171 99.7075C356.486 87.807 352.949 60.3266 344.275 45.6094C342.71 39.8851 340.244 26.1427 342.896 16.9677C342.694 16.6273 342.361 16.2795 341.906 16.063M271.765 201.223L273.667 193.442L341.906 16.063M267.118 201.226C263.401 201.228 255.031 188.77 251.311 182.541C238.085 162.26 239.724 133.69 242.197 121.94C247.994 84.7695 279.031 60.2572 285.351 52.4112C290.406 46.1344 321.556 27.4448 336.498 18.8846C338.942 15.7899 340.79 15.5314 341.906 16.063M267.118 201.226L265.141 225.213M267.118 201.226L268.069 199.092M269.019 196.958L268.069 199.092M275.012 181.638C266.809 167.8 251.028 135.6 253.53 117.502M275.012 181.638L268.069 199.092M275.012 181.638L289.107 145.312M289.107 145.312C279.268 133.25 261.453 102.598 268.9 76.4822M289.107 145.312L310.428 90.692L313.017 83.3926L322.433 56.8493M283.73 166.759C299.17 163.631 333.183 152.477 345.723 132.888M295.486 134.885C307.124 134.435 333.985 126.53 348.326 98.5106M311.701 91.8552C323.608 90.9746 347.287 85.1911 346.748 69.1015M322.433 56.8493C319.933 54.0774 314.883 47.2877 314.684 42.3037M322.433 56.8493L341.906 16.063M300.156 112.939C294.294 104.07 282.817 81.9894 283.806 64.6188" stroke="#BF9B30"/>
<path d="M163.888 218.568C166.089 214.823 171.175 205.404 169.92 203.891M169.92 203.891C168.352 201.999 140.046 185.835 132.111 160.967C125.762 141.072 132.522 122.616 136.696 115.874C141.173 110.539 153.041 99.1284 164.702 96.1752C167.822 94.1839 174.302 88.8024 175.265 83.2075C175.536 83.1401 175.912 83.13 176.34 83.2389M169.92 203.891L171.009 199.308L176.34 83.2389M173.556 206.056C176.465 207.789 187.14 205.767 192.114 204.54C209.18 201.064 217.358 186.724 219.313 179.989C227.085 159.627 210.911 133.523 208.564 126.852C206.686 121.515 188.497 98.1257 179.637 87.0983C178.749 84.4896 177.389 83.5062 176.34 83.2389M173.556 206.056L167.089 218.927M173.556 206.056L173.519 204.6M173.481 203.143L173.519 204.6M173.865 193.073C184.866 190.318 207.879 182.367 211.913 172.602M173.865 193.073L173.519 204.6M173.865 193.073L174.863 169.246M174.863 169.246C186.556 168.097 210.648 161.83 213.468 145.952M174.863 169.246L176.262 133.362L176.653 128.687L178.074 111.689M171.969 181.941C160.921 173.264 137.995 152.122 134.668 136.973M173.323 161.32C164.364 155.686 145.959 139.419 144.015 119.426M174.881 133.321C165.854 127.357 149.238 113.58 154.987 106.186M178.074 111.689C180.948 111.537 187.149 110.662 188.954 108.387M178.074 111.689L176.34 83.2389M176.935 148.717C184.459 147.233 200.753 142.087 205.73 133.372" stroke="#BF9B30"/>
<path d="M120.265 217.324C121.569 221.671 122.882 236.254 121.236 237.477M121.236 237.477C119.178 239.006 86.4813 248.353 72.2806 271.602C60.9201 290.201 63.2048 310.605 65.7672 318.482C68.9842 325.009 78.191 339.537 89.2817 345.436C91.9515 348.233 97.1889 355.305 96.7796 361.22C97.0379 361.356 97.4165 361.46 97.877 361.456M121.236 237.477L121.204 242.397L97.877 361.456M125.457 236.186C128.835 235.153 139.156 239.861 143.895 242.345C160.335 250.12 165.076 266.701 165.391 274.02C168.229 296.609 145.372 319.059 141.34 325.242C138.115 330.188 113.886 349.383 102.175 358.362C100.63 360.787 99.007 361.446 97.877 361.456M125.457 236.186L122.556 217.324M125.457 236.186L125.059 237.654M124.66 239.122L125.059 237.654M122.556 249.433C133.027 254.966 154.388 268.761 156.06 279.67M122.556 249.433L125.059 237.654M122.556 249.433L117.67 273.849M117.67 273.849C129.24 277.926 152.111 290.281 151.04 307.089M117.67 273.849L110.206 310.596L109.445 315.434L106.677 333.03M117.879 260.251C104.532 266.302 76.0569 282.039 68.934 296.576M114.147 281.505C103.67 284.989 80.9859 296.907 74.0654 316.702M108.795 310.293C98.1685 314.095 77.9139 323.932 81.9114 332.864M106.677 333.03C109.554 333.9 115.623 336.331 116.89 339.089M106.677 333.03L97.877 361.456M114.689 295.188C121.949 298.566 137.193 307.844 140.081 317.923" stroke="#BF9B30"/>
<path d="M412.018 216.923C416.201 221.693 423.947 229.757 426.088 229.247M426.088 229.247C428.765 228.609 454.769 206.214 487.286 212.246C513.3 217.073 534.772 235.931 542.256 244.756C547.933 253.075 559.59 273.475 560.8 288.52C562.614 293.273 567.926 303.898 574.664 308.379C574.691 308.728 574.624 309.162 574.399 309.582M426.088 229.247L431.544 233.258L574.399 309.582M422.637 232.069C419.877 234.327 420.138 247.687 420.614 254.085C421.337 275.592 437.404 293.569 445.347 299.869C468.97 321.031 504.752 318.446 513.521 319.815C520.537 320.911 553.376 314.391 568.918 310.994C572.341 311.565 573.847 310.613 574.399 309.582M422.637 232.069L408.816 217.725M422.637 232.069L424.452 232.908M426.267 233.748L424.452 232.908M438.678 240.28C439.781 254.455 444.803 285.43 456.067 295.928M438.678 240.28L424.452 232.908M438.678 240.28L468.023 255.838M468.023 255.838C466.989 269.827 469.695 301.011 488.797 313.828M468.023 255.838L512.241 279.152L517.957 282.426L538.744 294.331M452.884 244.863C465.972 237.556 497.02 224.291 516.511 229.679M478.179 258.885C487.052 252.111 511.102 241.035 536.311 250.927M512.582 277.606C521.879 270.954 542.463 260.404 550.426 271.416M538.744 294.331C538.328 297.691 538.108 305.269 540.552 308.7M538.744 294.331L574.399 309.582M493.052 270.621C493.31 280.074 496.266 301.713 506.03 312.647" stroke="#BF9B30"/>
<path d="M514.774 197.286C520.28 195.188 531.37 190.518 531.687 188.624M531.687 188.624C532.082 186.256 522.191 158.754 538.672 133.819C551.857 113.871 575.347 101.538 585.444 97.8655C594.48 95.5304 615.845 91.6574 629.021 94.8463C633.683 94.682 644.546 93.2862 650.699 89.0171C651.005 89.0924 651.349 89.2673 651.626 89.5682M531.687 188.624L536.994 185.273L651.626 89.5682M532.873 192.231C533.821 195.118 545.237 198.615 550.826 200.003C569.307 205.385 590.161 197.231 598.278 192.481C624.473 179.027 634.791 149.026 639.018 142.23C642.399 136.793 648.353 108.109 650.907 94.446C652.587 91.8034 652.307 90.3066 651.626 89.5682M532.873 192.231L514.774 200.082M532.873 192.231L534.218 190.98M535.564 189.728L534.218 190.98M545.439 181.385C557.84 184.42 585.849 188.915 598.685 182.613M545.439 181.385L534.218 190.98M545.439 181.385L568.885 161.692M568.885 161.692C580.381 166.425 607.758 172.872 625.3 160.8M568.885 161.692L604.104 131.983L608.877 128.214L626.235 114.511M554.29 171.032C552.673 158.293 552.283 129.2 563.664 114.745M575.018 154.228C572.378 145.084 571.398 122.327 588.596 104.444M602.913 131.274C600.525 121.818 598.779 102.042 610.896 98.5846M626.235 114.511C628.938 115.784 635.284 118.069 639.046 117.022M626.235 114.511L651.626 89.5682M590.165 145.316C598.267 147.731 617.642 151.322 630.323 146.37" stroke="#BF9B30"/>
<path d="M394.409 213.715C395.341 206.4 397.692 192.366 399.655 191.382M399.655 191.382C402.109 190.152 434.099 193.35 456.973 165.524C475.272 143.262 482.89 110.979 484.412 97.6209C484.749 85.9685 483.771 58.9404 477.164 44.0467C476.218 38.3654 475.104 24.8061 478.217 16.019C478.063 15.6743 477.791 15.3145 477.401 15.0751M399.655 191.382L401.984 183.908L477.401 15.0751M395.485 191.097C392.149 190.869 385.635 178.199 382.794 171.892C372.547 151.289 376.302 123.518 379.46 112.207C387.634 76.3023 417.446 54.306 423.744 47.0419C428.783 41.2307 458.229 24.9219 472.323 17.4938C474.763 14.6256 476.442 14.4876 477.401 15.0751M395.485 191.097L391.607 214.116M395.485 191.097L396.509 189.074M397.532 187.052L396.509 189.074M404.134 172.476C397.88 158.469 386.293 126.079 389.986 108.578M404.134 172.476L396.509 189.074M404.134 172.476L419.687 137.907M419.687 137.907C411.823 125.532 398.287 94.5274 407.057 69.509M419.687 137.907L443.187 85.9376L446.094 78.9764L456.666 53.6627M413.148 158.498C427.253 156.4 458.667 147.621 471.486 129.284M426.245 128.128C436.725 128.408 461.461 122.356 476.57 95.9067M444.237 87.151C454.992 87.0276 476.702 82.8482 477.506 67.1181M456.666 53.6627C454.644 50.804 450.655 43.8681 450.875 38.9935M456.666 53.6627L477.401 15.0751M432.191 107.007C427.639 97.9922 419.105 75.7416 421.382 58.8562" stroke="#BF9B30"/>
<path d="M514.872 200.082L450.438 205.295L407.215 218.126L275.146 230.155L176.294 224.14L115.862 216.522C109.139 213.956 103.189 215.453 101.055 216.522C95.9319 215.559 74.6407 233.763 64.6355 242.986C32.6187 265.44 37.4212 301.126 44.625 323.58C50.388 341.543 94.5178 392.011 115.862 415H105.057L33.0189 320.773C33.0189 290.941 26.3487 271.454 23.0137 265.44L-3 199.681L-0.19853 188.454L33.0189 255.415H39.4223C55.5641 241.382 89.5286 212.352 96.2521 208.502C102.976 204.653 110.793 208.77 113.861 211.309L178.295 220.932L229.122 223.739L278.348 225.744L325.973 220.932L414.019 211.71L450.438 200.082L514.872 197.275" stroke="#BF9B30"/>
</svg>
